<svg width="62" height="88" viewBox="0 0 62 88" fill="none" xmlns="http://www.w3.org/2000/svg">
<path d="M0.0914578 12.4375L0.017036 13.9963C-0.0239467 14.8535 0.0116848 23.074 0.0952747 32.2639C0.179271 41.4534 0.263732 56.7852 0.282259 66.3351L0.316596 83.6984L1.62546 84.1687C2.68146 84.5482 3.03808 84.8315 3.47523 85.634C3.77316 86.1811 4.02638 86.9369 4.03712 87.314C4.0482 87.6915 4.15082 87.9999 4.26512 87.9999C4.37939 87.9999 5.31748 87.5408 6.34957 86.9801C7.7636 86.2118 8.3266 85.7489 8.6353 85.1017C9.21166 83.8928 9.17896 83.7629 7.92269 82.2913C6.61416 80.7581 6.48447 79.9061 7.42471 79.023C7.88189 78.5932 8.0467 78.1786 8.0467 77.4689C8.0467 76.3128 8.86781 74.3961 9.51011 74.0528C9.99073 73.7954 10.5414 71.6985 10.5414 70.1243C10.5414 69.4136 10.4097 69.225 9.66084 68.8679C8.69472 68.4073 8.5576 68.0894 8.45405 66.0546C8.41602 65.3005 8.24945 64.4324 8.08486 64.1267C7.70093 63.4131 7.96086 62.3776 8.61146 62.0298C9.29039 61.6664 10.7614 62.11 11.5068 62.9037C12.049 63.4805 12.1921 64.3297 11.9943 65.7809C11.9489 66.1096 12.0528 66.4272 12.2242 66.4868C12.3957 66.5464 12.5371 66.4327 12.5371 66.234C12.5371 66.0352 12.7545 65.5947 13.0217 65.2552C13.4984 64.6491 13.5911 64.6347 18.239 64.473C20.5112 64.394 22.8881 64.1754 25.6171 63.8071C26.2365 63.3815 26.6634 62.8184 26.8735 62.1157C27.0179 61.633 27.0386 61.4546 27.0376 60.7153C27.0369 60.1393 27.0265 59.9586 26.9737 59.5972C26.8939 59.0533 26.8859 58.379 26.9546 57.9936C27.0535 57.4382 27.2776 56.9507 27.5871 56.616C27.7273 56.4643 27.7726 56.431 27.8409 56.431C28.0464 56.431 28.3755 56.1684 28.5583 55.8576C28.6824 55.6464 28.8201 55.2276 28.8578 54.9494C28.9108 54.5569 28.8399 54.23 28.6546 54.0136C28.6029 53.9532 28.5611 53.8986 28.5611 53.8916C28.5611 53.8842 28.5983 53.8713 28.6441 53.862C28.876 53.8157 29.1748 53.6032 29.3234 53.3793C29.5015 53.111 29.5418 52.9433 29.5399 52.4845C29.5379 52.0631 29.5022 51.8325 29.3968 51.5505C29.3221 51.3509 29.1922 51.1588 29.083 51.0879C29.0327 51.0552 28.9746 50.9845 28.9513 50.9267C28.7691 50.4748 28.8943 48.8336 29.1431 48.4092C29.3171 48.1122 29.5484 47.97 30.306 47.6918C31.1574 47.3792 31.4757 47.1831 31.7226 46.8218C31.909 46.5491 31.9911 46.2981 32.0041 45.9498C32.0261 45.3941 31.8891 45.0794 31.1884 44.0791C30.6035 43.244 29.1745 40.8365 28.6699 39.8358C27.9844 38.4764 27.6345 37.4249 27.465 36.2183C27.4237 35.9214 27.4178 35.5547 27.4164 32.5351C27.4147 29.1322 27.4118 28.9879 27.3067 27.7929C27.2187 26.7909 27.0322 25.5326 26.8602 24.7764C26.3537 22.5514 25.325 20.4563 23.8151 18.5755C21.7288 15.9768 18.8207 13.8655 15.4725 12.4377H7.90459L0.0914578 12.4375Z" fill="white"/>
<path d="M29.9309 0.211862C29.7118 0.45303 29.4828 0.903199 29.1915 1.5877C28.9006 2.27219 28.3681 3.01095 28.0088 3.23015C27.3974 3.60329 27.3193 3.5933 26.7613 3.06678C26.3228 2.65231 25.8561 2.50536 24.9815 2.50536C24.3295 2.50536 23.796 2.59101 23.795 2.69607C23.7945 2.80074 23.4789 3.23017 23.0943 3.64965C22.7098 4.06961 21.045 6.10093 19.3954 8.16443L16.3972 11.9164H16.1484C19.5451 13.3727 22.4953 15.5262 24.6118 18.1768C26.1436 20.095 27.1872 22.2319 27.7011 24.5014C27.8756 25.2727 28.0647 26.5561 28.154 27.578C28.2606 28.7969 28.2636 28.9441 28.2653 32.4149C28.2668 35.4948 28.2729 35.8689 28.3147 36.1717C28.4866 37.4024 28.8416 38.4749 29.537 39.8614C30.0489 40.8821 31.4986 43.3376 32.092 44.1894C32.8028 45.2097 32.9418 45.5306 32.9195 46.0975C32.9064 46.4527 32.823 46.7087 32.634 46.9868C32.3835 47.3554 32.0605 47.5553 31.1968 47.8742C30.4283 48.158 30.1936 48.3031 30.017 48.6059C29.7646 49.0389 29.6376 50.7128 29.8225 51.1737C29.8461 51.2328 29.9051 51.3048 29.956 51.338C30.0669 51.4102 30.1987 51.6063 30.2745 51.8099C30.3814 52.0975 30.4176 52.3326 30.4196 52.7625C30.4215 53.2305 30.3806 53.4015 30.1999 53.6752C30.0492 53.9035 29.7461 54.1203 29.5109 54.1676C29.4644 54.1768 29.4266 54.1908 29.4266 54.1976C29.4266 54.205 29.469 54.2606 29.5215 54.3221C29.7094 54.5428 29.7814 54.8762 29.7276 55.2766C29.6894 55.5603 29.5497 55.9874 29.4237 56.2029C29.2383 56.5198 28.9044 56.7877 28.6959 56.7877C28.6266 56.7877 28.5808 56.8215 28.4385 56.9765C28.1245 57.3178 27.8971 57.8151 27.7968 58.3815C27.7272 58.7745 27.7353 59.4624 27.8162 60.0171C27.8698 60.3858 27.8803 60.57 27.8811 61.1575C27.882 61.9116 27.861 62.0937 27.7146 62.5859C27.4996 63.3087 27.0785 63.3963 26.4417 63.8316C32.1208 63.9003 42.2101 61.2386 43.4452 60.6509C43.511 60.6284 43.5751 60.6073 43.6407 60.5846C44.7576 60.2024 45.8346 59.8077 46.7851 59.4316C47.8578 59.0071 48.7673 58.6074 49.3478 58.2863C50.7301 57.5216 51.5528 57.0188 52.0296 56.5797C52.5057 56.1407 52.6374 55.7668 52.6374 55.2583C52.6374 54.697 52.9816 53.896 53.5955 52.9717C53.9022 52.5099 54.277 52.0168 54.7085 51.5073V51.5073C55.1402 50.9977 55.6293 50.4703 56.1669 49.9418C56.3802 49.732 56.61 49.4859 56.8415 49.2198C57.5362 48.4206 58.2523 47.4458 58.6261 46.7639V46.7639C58.8755 46.3093 59.2009 45.7924 59.5233 45.3258V45.3258C59.8458 44.859 60.1658 44.4409 60.4059 44.1873C60.4149 44.1781 60.4203 44.1707 60.4291 44.1622C60.6438 43.9368 60.8078 43.7742 60.9295 43.592C61.0663 43.388 61.1561 43.1558 61.2082 42.765C61.3084 42.01 61.282 40.668 61.2517 37.8201L61.2392 36.634L60.5182 36.9074C59.8859 37.147 59.6746 37.0894 58.8139 36.4404C57.3131 35.3082 56.635 34.6126 56.1863 33.5738C56.0458 33.2484 55.9272 32.8881 55.8137 32.4705C55.8104 32.4594 55.8063 32.4503 55.803 32.4383C55.2337 30.3235 55.4549 29.3881 56.9508 27.5733C57.867 26.4618 57.9685 26.21 57.8218 25.4239C57.6197 24.3398 57.417 24.0406 55.5707 22.0942C53.8439 20.2738 52.6535 19.4346 50.1075 18.243C48.3266 17.409 48.1692 17.3778 47.5428 17.737C46.5811 18.288 44.9401 17.771 44.4159 16.7523C43.743 15.4436 43.9176 14.2506 44.9211 13.2991C45.4577 12.7905 45.8066 12.218 45.8066 11.8464C45.8066 11.5091 46.0465 11.0144 46.3399 10.7478C47.9324 9.30062 48.1008 8.10473 46.6331 8.66169C46.4454 8.73294 46.295 8.78112 46.1531 8.79995C46.0195 8.81657 45.8927 8.80734 45.7485 8.76192C45.4445 8.66611 45.0628 8.41363 44.3694 7.92509C43.5597 7.35418 42.4679 6.76912 41.9441 6.62417C41.938 6.62251 41.9299 6.61679 41.9238 6.61495C41.4049 6.46652 40.6575 6.06851 40.2398 5.71879C40.2367 5.71697 40.2304 5.71326 40.2273 5.71141C39.8061 5.35574 38.535 4.77019 37.4032 4.41052C36.8386 4.23127 36.2387 3.98666 35.637 3.70117C35.0648 3.42972 34.4923 3.12039 33.9482 2.79042C32.8134 2.10203 31.8036 1.32752 31.1948 0.630319C31.1839 0.617397 31.1755 0.610377 31.1648 0.598193C31.0315 0.447555 30.9124 0.330732 30.8009 0.23627C30.7504 0.193626 30.6999 0.15134 30.6528 0.120511C30.6336 0.107589 30.6135 0.0939341 30.5948 0.0835962C30.4333 -0.00741421 30.289 -0.0273599 30.1486 0.0398364C30.0758 0.0745422 30.0039 0.131558 29.9309 0.211862Z" fill="white"/>
</svg>
